<svg xmlns="http://www.w3.org/2000/svg" version="1.0" width="200.000000pt" height="200.000000pt"
  viewBox="0 0 200.000000 200.000000" preserveAspectRatio="xMidYMid meet"
  style="&#10;    fill: red;&#10;">

  <g transform="translate(0.000000,200.000000) scale(0.100000,-0.100000)" fill="#000000"
    stroke="none" style="&#10;    fill: #235e63;&#10;">
    <path
      d="M811 1740 c-112 -33 -205 -61 -208 -63 -2 -2 55 -44 126 -92 l130 -88 293 -43 c161 -23 296 -39 300 -35 11 11 24 323 13 327 -15 5 -409 54 -431 53 -10 0 -111 -27 -223 -59z" />
    <path
      d="M1585 1507 l-7 -153 97 -149 c54 -83 118 -181 142 -219 24 -37 46 -67 48 -65 3 3 85 383 85 393 0 2 -81 81 -179 175 l-179 171 -7 -153z" />
    <path
      d="M322 1477 c-78 -78 -142 -145 -142 -149 0 -7 200 -289 228 -320 13 -16 28 1 178 199 90 119 163 217 162 218 -2 1 -66 45 -144 97 l-141 96 -141 -141z" />
    <path
      d="M692 1145 c-95 -123 -172 -228 -172 -232 0 -4 89 -49 198 -98 l197 -91 137 40 137 40 114 240 c98 206 113 242 99 248 -13 5 -510 78 -532 78 -3 0 -83 -101 -178 -225z" />
    <path
      d="M1410 985 l-110 -228 111 -176 c62 -97 113 -177 114 -179 2 -2 62 70 135 160 73 90 139 170 147 179 12 14 -3 42 -128 235 -78 121 -145 223 -150 228 -5 6 -55 -87 -119 -219z" />
    <path
      d="M130 1167 c0 -4 -18 -96 -40 -204 l-40 -196 55 -76 c30 -42 79 -107 108 -145 l52 -70 289 -128 c159 -70 290 -128 292 -128 3 0 3 90 2 200 l-3 201 -234 108 -234 107 -112 158 c-113 158 -135 186 -135 173z" />
    <path
      d="M1083 647 l-113 -31 0 -208 0 -208 24 6 c121 30 421 123 421 130 0 12 -208 344 -215 343 -3 0 -56 -15 -117 -32z" />
  </g>
</svg>